<svg xmlns="http://www.w3.org/2000/svg" viewBox="0 0 64 64" id="book-shelf">
  <rect width="8" height="24" x="16" y="18" fill="#c1272d"></rect>
  <rect width="8" height="28" x="8" y="14" fill="#009245"></rect>
  <path fill="#999" d="M8.5,10h7a.5.5,0,0,1,.5.5V14a0,0,0,0,1,0,0H8a0,0,0,0,1,0,0V10.5A.5.5,0,0,1,8.5,10Z"></path>
  <rect width="8" height="4" x="8" y="42" fill="#999"></rect>
  <line x1="12" x2="12" y1="22" y2="34" fill="none" stroke="#f2f2f2" stroke-miterlimit="10" stroke-width="2"></line>
  <rect width="8" height="28" x="24" y="14" fill="#29abe2"></rect>
  <path fill="#999" d="M24.5,10h7a.5.5,0,0,1,.5.5V14a0,0,0,0,1,0,0H24a0,0,0,0,1,0,0V10.5A.5.5,0,0,1,24.5,10Z"></path>
  <rect width="8" height="4" x="24" y="42" fill="#999"></rect>
  <line x1="28" x2="28" y1="22" y2="34" fill="none" stroke="#f2f2f2" stroke-miterlimit="10" stroke-width="2"></line>
  <path fill="#a67c52" d="M3,46.5v4a.5.5,0,0,0,.5.5h3a.5.5,0,0,1,.5.5v2a.5.5,0,0,0,.5.5h7a.5.5,0,0,0,.5-.5v-2a.5.5,0,0,1,.5-.5h33a.5.5,0,0,1,.5.5v2a.5.5,0,0,0,.5.5h7a.5.5,0,0,0,.5-.5v-2a.5.5,0,0,1,.5-.5h3a.5.5,0,0,0,.5-.5v-4a.5.5,0,0,0-.5-.5H3.5A.5.5,0,0,0,3,46.5Z"></path>
  <rect width="8" height="4" x="16" y="14" fill="#bababa"></rect>
  <rect width="8" height="4" x="16" y="42" fill="#bababa"></rect>
  <line x1="20" x2="20" y1="26" y2="34" fill="none" stroke="#f2f2f2" stroke-miterlimit="10" stroke-width="2"></line>
  <rect width="8" height="24" x="32" y="18" fill="#f2f261"></rect>
  <rect width="8" height="4" x="32" y="14" fill="#bababa"></rect>
  <rect width="8" height="4" x="32" y="42" fill="#bababa"></rect>
  <line x1="36" x2="36" y1="26" y2="34" fill="none" stroke="#f2f2f2" stroke-miterlimit="10" stroke-width="2"></line>
  <rect width="8" height="28" x="40" y="14" fill="#c1272d"></rect>
  <path fill="#999" d="M40.5,10h7a.5.5,0,0,1,.5.5V14a0,0,0,0,1,0,0H40a0,0,0,0,1,0,0V10.5A.5.5,0,0,1,40.5,10Z"></path>
  <rect width="8" height="4" x="40" y="42" fill="#999"></rect>
  <line x1="44" x2="44" y1="22" y2="34" fill="none" stroke="#f2f2f2" stroke-miterlimit="10" stroke-width="2"></line>
  <rect width="8" height="24" x="48" y="18" fill="#009245"></rect>
  <path fill="#bababa" d="M48,14h7.5a.5.5,0,0,1,.5.5V18a0,0,0,0,1,0,0H48a0,0,0,0,1,0,0V14A0,0,0,0,1,48,14Z"></path>
  <rect width="8" height="4" x="48" y="42" fill="#bababa"></rect>
  <line x1="52" x2="52" y1="26" y2="34" fill="none" stroke="#f2f2f2" stroke-miterlimit="10" stroke-width="2"></line>
  <g>
    <rect width="2" height="12" x="11" y="22"></rect>
    <rect width="2" height="12" x="27" y="22"></rect>
    <path d="M60.5,45H57V14.5A1.5,1.5,0,0,0,55.5,13H49V10.5A1.5,1.5,0,0,0,47.5,9h-7A1.5,1.5,0,0,0,39,10.5V13H33V10.5A1.5,1.5,0,0,0,31.5,9h-7A1.5,1.5,0,0,0,23,10.5V13H17V10.5A1.5,1.5,0,0,0,15.5,9h-7A1.5,1.5,0,0,0,7,10.5V45H3.5A1.5,1.5,0,0,0,2,46.5v4A1.5,1.5,0,0,0,3.5,52H6v1.5A1.5,1.5,0,0,0,7.5,55h7A1.5,1.5,0,0,0,16,53.5V52H48v1.5A1.5,1.5,0,0,0,49.5,55h7A1.5,1.5,0,0,0,58,53.5V52h2.5A1.5,1.5,0,0,0,62,50.5v-4A1.5,1.5,0,0,0,60.5,45ZM55,45H49V43h6ZM17,43h6v2H17Zm0-24h6V41H17Zm8-2V15h6V41H25V17Zm16,0V15h6V41H41V17ZM39,41H33V19h6ZM25,43h6v2H25Zm8,0h6v2H33Zm8,0h6v2H41Zm14-2H49V19h6Zm0-26v2H49V15ZM41,11h6v2H41Zm-2,4v2H33V15ZM25,11h6v2H25Zm-2,4v2H17V15ZM9,11h6v2H9Zm0,4h6V41H9ZM9,43h6v2H9Zm51,7H57.5A1.5,1.5,0,0,0,56,51.5V53H50V51.5A1.5,1.5,0,0,0,48.5,50h-33A1.5,1.5,0,0,0,14,51.5V53H8V51.5A1.5,1.5,0,0,0,6.5,50H4V47H60Z"></path>
    <rect width="2" height="8" x="19" y="26"></rect>
    <rect width="2" height="8" x="35" y="26"></rect>
    <rect width="2" height="12" x="43" y="22"></rect>
    <rect width="2" height="8" x="51" y="26"></rect>
  </g>
</svg>
