<svg xmlns="http://www.w3.org/2000/svg" viewBox="0 0 100 100" id="chair">
  <rect width="3.42" height="11.61" x="33.68" y="32.26" fill="#f4a864"></rect>
  <rect width="3.42" height="11.61" x="62.88" y="32.26" fill="#f4a864"></rect>
  <path fill="#f4a864" d="M32.68,30.25H69.27V13H30.71V30.26h2Z"></path>
  <rect width="3.42" height="12.18" x="33.68" y="63.79" fill="#f4a864"></rect>
  <rect width="4.34" height="23.24" x="23.08" y="63.79" fill="#f4a864"></rect>
  <path fill="#f4a864" d="M28.94,59.6H27.25a1,1,0,1,1,0-2H77L66.84,45.87H33.14L21.84,59v2.82h56.3V59.6Z"></path>
  <rect width="4.34" height="23.24" x="72.56" y="63.79" fill="#f4a864"></rect>
  <rect width="3.42" height="12.18" x="62.88" y="63.79" fill="#f4a864"></rect>
  <polygon points="37.11 32.26 37.11 32.29 36.29 32.29 36.29 43.87 33.68 43.87 33.68 32.26 37.11 32.26" opacity=".15"></polygon>
  <polygon points="66.3 32.26 66.3 32.29 65.48 32.29 65.48 43.87 62.88 43.87 62.88 32.26 66.3 32.26" opacity=".15"></polygon>
  <path d="M69.27,13v0H33.32V30.25H30.71V13Z" opacity=".15"></path>
  <polygon points="37.11 63.79 37.11 63.83 35.29 63.83 35.29 75.97 33.68 75.97 33.68 63.79 37.11 63.79" opacity=".15"></polygon>
  <polygon points="27.42 63.79 27.42 63.83 25.69 63.83 25.69 87.03 23.08 87.03 23.08 63.79 27.42 63.79" opacity=".15"></polygon>
  <polygon points="76.9 63.79 76.9 63.83 75.17 63.83 75.17 87.03 72.56 87.03 72.56 63.79 76.9 63.79" opacity=".15"></polygon>
  <polygon points="66.3 63.79 66.3 63.83 64.48 63.83 64.48 75.97 62.88 75.97 62.88 63.79 66.3 63.79" opacity=".15"></polygon>
  <polygon points="78.47 58.66 24.74 58.66 35.74 45.9 66.87 45.9 66.84 45.87 33.14 45.87 21.84 58.97 21.84 61.79 24.45 61.79 24.45 60.86 78.47 60.86 78.47 58.66" opacity=".15"></polygon>
  <path fill="#f9f7f7" d="M58.42 16.74h6.89V28a1 1 0 002 0V15.74a1 1 0 00-1-1H58.42a1 1 0 000 2zM53.75 16.74H55a1 1 0 100-2H53.75a1 1 0 000 2z" opacity=".37"></path>
  <path fill="#262626" d="M20.09,58s0,.08-.07.12a1.62,1.62,0,0,0-.1.18.78.78,0,0,0,0,.21.7.7,0,0,0,0,.14v4.19a1,1,0,0,0,1,1h.24V88a1,1,0,0,0,1,1h6.34a1,1,0,0,0,1-1V63.79h2.26V77a1,1,0,0,0,1,1h5.42a1,1,0,0,0,1-1V63.79H60.89V77a1,1,0,0,0,1,1h5.42a1,1,0,0,0,1-1V63.79h2.26V88a1,1,0,0,0,1,1h6.34a1,1,0,0,0,1-1V63.79h.24a1,1,0,0,0,1-1V58.6s0,0,0-.05a1.07,1.07,0,0,0-.06-.3.09.09,0,0,1,0,0,1.07,1.07,0,0,0-.16-.25L68.31,44.5V32.26h2a1,1,0,0,0,1-1V12a1,1,0,0,0-1-1H29.72a1,1,0,0,0-1,1V31.26a1,1,0,0,0,1,1h2V44.5ZM27.43,87H23.09V63.79h4.34ZM37.11,76H33.69V63.79h3.42Zm29.2,0H62.89V63.79h3.42ZM76.91,87H72.57V63.79h4.34ZM27.26,57.6a1,1,0,1,0,0,2H78.15v2.19H21.85V59l11.3-13.1h33.7L77,57.6H27.26ZM60.89,32.26V43.87H39.11V32.26Zm5.42,11.61H62.89V32.26h3.42ZM30.72,13H69.28V30.26H30.72Zm6.39,19.29V43.87H33.69V32.26Z"></path>
</svg>
