<svg xmlns="http://www.w3.org/2000/svg" viewBox="0 0 512 512" id="closet">
  <polygon fill="#fedb41" points="464.98 428.16 464.98 475.49 47.02 475.49 47.02 428.16 68.95 428.16 256 428.16 443.05 428.16 464.98 428.16"></polygon>
  <polygon fill="#fedb41" points="464.98 36.51 464.98 83.84 443.05 83.84 256 83.84 68.95 83.84 47.02 83.84 47.02 36.51 464.98 36.51"></polygon>
  <polygon fill="#00efd1" points="443.05 312 443.05 428.16 256 428.16 256 312 443 312 443.05 312"></polygon>
  <polygon fill="#00acea" points="443.05 202 443.05 312 443 312 256 312 256 202 443 202 443.05 202"></polygon>
  <polygon fill="#00efd1" points="443.05 83.84 443.05 202 443 202 256 202 256 83.84 443.05 83.84"></polygon>
  <path fill="#00acea" d="M256,312V428.16H68.95V83.84H256V312Zm-28.01-18.17V218.17H203.98v75.66Z"></path>
  <rect width="24.01" height="75.66" x="203.98" y="218.17" fill="#00efd1"></rect>
  <path fill="#083863" d="M47.02,482H464.98c3.866,0,7.02-2.644,7.02-6.51V428.16a7.155,7.155,0,0,0-7.02-7.16H450V91h14.98A7.155,7.155,0,0,0,472,83.84V36.51c0-3.866-3.154-6.51-7.02-6.51H47.02C43.154,30,40,32.644,40,36.51V83.84A7.155,7.155,0,0,0,47.02,91H62V421H47.02A7.155,7.155,0,0,0,40,428.16v47.33C40,479.356,43.154,482,47.02,482ZM263,421V319H436V421ZM436,305H263V209H436Zm0-110H263V91H436ZM54,44H458V77H54ZM76,91H249V421H76ZM54,435H458v33H54Z"></path>
  <path fill="#083863" d="M235,218a7,7,0,0,0-7-7H204a7,7,0,0,0-7,7v76a7,7,0,0,0,7,7h24a7,7,0,0,0,7-7Zm-14,69H211V225h10Z"></path>
</svg>
