<svg xmlns="http://www.w3.org/2000/svg" viewBox="0 0 64 64" id="light-lamp">
  <path fill="#18a859" d="M50.76,35.8a1,1,0,0,1-.98,1.2H14.22a.877.877,0,0,1-.46-.12,1,1,0,0,1-.52-1.08L14.2,31l.8-4L18.84,7.8a1,1,0,0,1,.98-.8H44.18a1,1,0,0,1,.98.8l1.42,7.1L49,27l.8,4Z"></path>
  <path fill="#29b264" d="M46.58,14.9A52.872,52.872,0,0,1,31.56,29.58a52.412,52.412,0,0,1-17.8,7.3,1,1,0,0,1-.52-1.08L14.2,31l.8-4L18.84,7.8a1,1,0,0,1,.98-.8H44.18a1,1,0,0,1,.98.8Z"></path>
  <rect width="4" height="4" x="30" y="3" fill="#e8bc05"></rect>
  <polygon fill="#e6e6e6" points="49.8 31 14.2 31 15 27 49 27 49.8 31"></polygon>
  <path fill="#e8bc05" d="M30,47v5a1,1,0,0,1-1,1H28a2,2,0,0,0-2,2v2H38V55a2,2,0,0,0-2-2H35a1,1,0,0,1-1-1V37H30V47Z"></path>
  <path fill="#cca70e" d="M24,57H40a2,2,0,0,1,2,2v2a0,0,0,0,1,0,0H22a0,0,0,0,1,0,0V59A2,2,0,0,1,24,57Z"></path>
  <rect width="2" height="8" x="18" y="37" fill="#d6ae05"></rect>
  <rect width="2" height="2" x="18" y="43" fill="#c19d06"></rect>
  <circle cx="19" cy="46" r="2" fill="#d6ae05"></circle>
  <rect width="4" height="2" x="30" y="37" fill="#d3ab05"></rect>
</svg>
