<svg xmlns="http://www.w3.org/2000/svg" viewBox="0 0 64 64" id="Sofa">
  <g fill="#000000" class="color000000 svgShape">
    <path fill="#f7ec22" d="M32 12c-5.741 0-10.114.342-13.387.795C13.67 13.48 10 17.71 10 22.701V41h44V22.7c0-4.99-3.67-9.22-8.613-9.905C42.114 12.342 37.741 12 32 12Z" class="colorf44040 svgShape"></path>
    <path fill="#413e07" d="M48 46h4v6h-4zM16 52h-4v-6h4z" class="color072e41 svgShape"></path>
    <path fill="#f1e500" d="M60 29a5.001 5.001 0 0 0-5.491-4.976c-2.6.247-4.509 2.58-4.509 5.19V38H14v-8.785c0-2.611-1.91-4.944-4.509-5.191A5.001 5.001 0 0 0 8 33.898V42a2 2 0 0 0 2 2h44a2 2 0 0 0 2-2v-8.1c2.282-.464 4-2.481 4-4.9Z" class="colorf10000 svgShape"></path>
    <path fill="#c4ba05" d="M10 44h44v2c0 1.104-.896 2-2 2H12c-1.104 0-2-.896-2-2v-2Z" class="colorc40505 svgShape"></path>
    <path fill="#eae8bf" d="M16 34h14c1.104 0 2 .896 2 2v2H14v-2c0-1.104.896-2 2-2Z" class="colorbfd9ea svgShape"></path>
    <path fill="#f7f6e2" d="M50 38H32v-2c0-1.104.896-2 2-2h14c1.104 0 2 .896 2 2v2Z" class="colore2eff7 svgShape"></path>
    <path d="M59.035 24.56A6.007 6.007 0 0 0 55 23.002v-.3c0-5.465-4.074-10.15-9.477-10.897C41.668 11.27 37.118 11 32 11s-9.668.27-13.524.805C13.074 12.553 9 17.237 9 22.7v.301a6.022 6.022 0 0 0-4.036 1.558A6.015 6.015 0 0 0 3 29c0 2.56 1.64 4.822 4 5.657V42c0 1.302.839 2.402 2 2.816V46c0 1.302.839 2.402 2 2.816V52a1 1 0 0 0 1 1h4a1 1 0 0 0 1-1v-3h30v3a1 1 0 0 0 1 1h4a1 1 0 0 0 1-1v-3.184A2.995 2.995 0 0 0 55 46v-1.184A2.995 2.995 0 0 0 57 42v-7.343c2.36-.835 4-3.096 4-5.657a6.013 6.013 0 0 0-1.965-4.44ZM18.75 13.785C22.516 13.265 26.974 13 32 13s9.484.265 13.25.785c4.418.612 7.75 4.445 7.75 8.916v.657c-2.328.858-4 3.192-4 5.857v3.97A2.964 2.964 0 0 0 48 33H34c-.771 0-1.468.3-2 .78a2.977 2.977 0 0 0-2-.78H16c-.352 0-.686.072-1 .184v-3.97c0-2.664-1.672-4.998-4-5.856V22.7c0-4.47 3.332-8.303 7.75-8.916ZM15 37v-1a1 1 0 0 1 1-1h14a1 1 0 0 1 1 1v1H15Zm18-1a1 1 0 0 1 1-1h14a1 1 0 0 1 1 1v1H33v-1ZM15 51h-2v-2h2v2Zm36 0h-2v-2h2v2Zm2-5a1 1 0 0 1-1 1H12a1 1 0 0 1-1-1v-1h42v1Zm2.8-13.08a1 1 0 0 0-.8.98V42a1 1 0 0 1-1 1H10a1 1 0 0 1-1-1v-8.1a1 1 0 0 0-.8-.98A4.011 4.011 0 0 1 5 29a4.01 4.01 0 0 1 1.31-2.96A3.958 3.958 0 0 1 8.997 25c.132 0 .266.006.399.019 2.021.193 3.604 2.036 3.604 4.196V38a1 1 0 0 0 1 1h36a1 1 0 0 0 1-1v-8.785c0-2.16 1.583-4.003 3.603-4.196a3.973 3.973 0 0 1 3.087 1.02A4.012 4.012 0 0 1 59 29a4.011 4.011 0 0 1-3.2 3.92Z" fill="#000000" class="color000000 svgShape"></path>
    <path d="M38 23h1v1a1 1 0 1 0 2 0v-1h1a1 1 0 1 0 0-2h-1v-1a1 1 0 1 0-2 0v1h-1a1 1 0 1 0 0 2zm-16 0h1v1a1 1 0 1 0 2 0v-1h1a1 1 0 1 0 0-2h-1v-1a1 1 0 1 0-2 0v1h-1a1 1 0 1 0 0 2z" fill="#000000" class="color000000 svgShape"></path>
  </g>
</svg>
