<svg xmlns="http://www.w3.org/2000/svg" id="table" viewBox="0 0 48 48">
  <path fill="#9a4c29" d="M38.23,21.849l2.576,16.877c.112.733.742,1.274,1.483,1.274h1.212c.828,0,1.5-.672,1.5-1.5V11H3v27.5c0,.828.672,1.5,1.5,1.5h1.212c.741,0,1.371-.541,1.483-1.274l2.576-16.877c.075-.488.495-.849.989-.849h26.482c.494,0,.914.361.989.849Z"></path>
  <rect width="42" height="5" x="3" y="11" fill="#7d3327"></rect>
  <rect width="48" height="6" y="8" fill="#b5633a" rx="2" ry="2"></rect>
  <path fill="#9a4c29" d="M46.5,12H1.5c-.601,0-1.133-.27-1.5-.69v.69c0,1.105.895,2,2,2h44c1.105,0,2-.895,2-2v-.69c-.367.419-.899.69-1.5.69Z"></path>
</svg>
